TITLE ""
FILE "LR_black_phrase_E_S06.mp3" MP3
  TRACK 01 AUDIO
    TITLE "LR_black_phrase_E_S06_001"
    INDEX 01 00:00:00
  TRACK 02 AUDIO
    TITLE "LR_black_phrase_E_S06_002"
    INDEX 01 00:00:14
  TRACK 03 AUDIO
    TITLE "LR_black_phrase_E_S06_003"
    INDEX 01 00:01:55
  TRACK 04 AUDIO
    TITLE "LR_black_phrase_E_S06_004"
    INDEX 01 00:02:11
  TRACK 05 AUDIO
    TITLE "LR_black_phrase_E_S06_005"
    INDEX 01 00:04:24
  TRACK 06 AUDIO
    TITLE "LR_black_phrase_E_S06_006"
    INDEX 01 00:05:06
  TRACK 07 AUDIO
    TITLE "LR_black_phrase_E_S06_007"
    INDEX 01 00:07:18
  TRACK 08 AUDIO
    TITLE "LR_black_phrase_E_S06_008"
    INDEX 01 00:08:25
  TRACK 09 AUDIO
    TITLE "LR_black_phrase_E_S06_009"
    INDEX 01 00:09:46
  TRACK 10 AUDIO
    TITLE "LR_black_phrase_E_S06_010"
    INDEX 01 00:10:05
  TRACK 11 AUDIO
    TITLE "LR_black_phrase_E_S06_011"
    INDEX 01 00:11:59
  TRACK 12 AUDIO
    TITLE "LR_black_phrase_E_S06_012"
    INDEX 01 00:12:37
  TRACK 13 AUDIO
    TITLE "LR_black_phrase_E_S06_013"
    INDEX 01 00:14:18
  TRACK 14 AUDIO
    TITLE "LR_black_phrase_E_S06_014"
    INDEX 01 00:15:18
  TRACK 15 AUDIO
    TITLE "LR_black_phrase_E_S06_015"
    INDEX 01 00:16:33
  TRACK 16 AUDIO
    TITLE "LR_black_phrase_E_S06_016"
    INDEX 01 00:16:52
  TRACK 17 AUDIO
    TITLE "LR_black_phrase_E_S06_017"
    INDEX 01 00:18:59
  TRACK 18 AUDIO
    TITLE "LR_black_phrase_E_S06_018"
    INDEX 01 00:19:29
  TRACK 19 AUDIO
    TITLE "LR_black_phrase_E_S06_019"
    INDEX 01 00:21:36
  TRACK 20 AUDIO
    TITLE "LR_black_phrase_E_S06_020"
    INDEX 01 00:22:31
  TRACK 21 AUDIO
    TITLE "LR_black_phrase_E_S06_021"
    INDEX 01 00:23:56
  TRACK 22 AUDIO
    TITLE "LR_black_phrase_E_S06_022"
    INDEX 01 00:24:03
  TRACK 23 AUDIO
    TITLE "LR_black_phrase_E_S06_023"
    INDEX 01 00:25:65
  TRACK 24 AUDIO
    TITLE "LR_black_phrase_E_S06_024"
    INDEX 01 00:26:37
  TRACK 25 AUDIO
    TITLE "LR_black_phrase_E_S06_025"
    INDEX 01 00:28:24
  TRACK 26 AUDIO
    TITLE "LR_black_phrase_E_S06_026"
    INDEX 01 00:29:28
  TRACK 27 AUDIO
    TITLE "LR_black_phrase_E_S06_027"
    INDEX 01 00:30:45
  TRACK 28 AUDIO
    TITLE "LR_black_phrase_E_S06_028"
    INDEX 01 00:30:72
  TRACK 29 AUDIO
    TITLE "LR_black_phrase_E_S06_029"
    INDEX 01 00:33:23
  TRACK 30 AUDIO
    TITLE "LR_black_phrase_E_S06_030"
    INDEX 01 00:34:05
  TRACK 31 AUDIO
    TITLE "LR_black_phrase_E_S06_031"
    INDEX 01 00:36:32
  TRACK 32 AUDIO
    TITLE "LR_black_phrase_E_S06_032"
    INDEX 01 00:37:37
  TRACK 33 AUDIO
    TITLE "LR_black_phrase_E_S06_033"
    INDEX 01 00:38:56
  TRACK 34 AUDIO
    TITLE "LR_black_phrase_E_S06_034"
    INDEX 01 00:39:10
  TRACK 35 AUDIO
    TITLE "LR_black_phrase_E_S06_035"
    INDEX 01 00:41:56
  TRACK 36 AUDIO
    TITLE "LR_black_phrase_E_S06_036"
    INDEX 01 00:42:38
  TRACK 37 AUDIO
    TITLE "LR_black_phrase_E_S06_037"
    INDEX 01 00:45:09
  TRACK 38 AUDIO
    TITLE "LR_black_phrase_E_S06_038"
    INDEX 01 00:46:08
  TRACK 39 AUDIO
    TITLE "LR_black_phrase_E_S06_039"
    INDEX 01 00:47:20
  TRACK 40 AUDIO
    TITLE "LR_black_phrase_E_S06_040"
    INDEX 01 00:47:41
  TRACK 41 AUDIO
    TITLE "LR_black_phrase_E_S06_041"
    INDEX 01 00:49:21
  TRACK 42 AUDIO
    TITLE "LR_black_phrase_E_S06_042"
    INDEX 01 00:49:66
  TRACK 43 AUDIO
    TITLE "LR_black_phrase_E_S06_043"
    INDEX 01 00:51:45
  TRACK 44 AUDIO
    TITLE "LR_black_phrase_E_S06_044"
    INDEX 01 00:52:40
  TRACK 45 AUDIO
    TITLE "LR_black_phrase_E_S06_045"
    INDEX 01 00:53:69
  TRACK 46 AUDIO
    TITLE "LR_black_phrase_E_S06_046"
    INDEX 01 00:54:14
  TRACK 47 AUDIO
    TITLE "LR_black_phrase_E_S06_047"
    INDEX 01 00:56:54
  TRACK 48 AUDIO
    TITLE "LR_black_phrase_E_S06_048"
    INDEX 01 00:57:24
  TRACK 49 AUDIO
    TITLE "LR_black_phrase_E_S06_049"
    INDEX 01 00:59:64
  TRACK 50 AUDIO
    TITLE "LR_black_phrase_E_S06_050"
    INDEX 01 01:00:65
  TRACK 51 AUDIO
    TITLE "LR_black_phrase_E_S06_051"
    INDEX 01 01:02:04
  TRACK 52 AUDIO
    TITLE "LR_black_phrase_E_S06_052"
    INDEX 01 01:02:33
  TRACK 53 AUDIO
    TITLE "LR_black_phrase_E_S06_053"
    INDEX 01 01:05:02
  TRACK 54 AUDIO
    TITLE "LR_black_phrase_E_S06_054"
    INDEX 01 01:05:57
  TRACK 55 AUDIO
    TITLE "LR_black_phrase_E_S06_055"
    INDEX 01 01:08:28
  TRACK 56 AUDIO
    TITLE "LR_black_phrase_E_S06_056"
    INDEX 01 01:09:33
  TRACK 57 AUDIO
    TITLE "LR_black_phrase_E_S06_057"
    INDEX 01 01:10:50
  TRACK 58 AUDIO
    TITLE "LR_black_phrase_E_S06_058"
    INDEX 01 01:11:04
  TRACK 59 AUDIO
    TITLE "LR_black_phrase_E_S06_059"
    INDEX 01 01:12:65
  TRACK 60 AUDIO
    TITLE "LR_black_phrase_E_S06_060"
    INDEX 01 01:13:45
  TRACK 61 AUDIO
    TITLE "LR_black_phrase_E_S06_061"
    INDEX 01 01:15:26
  TRACK 62 AUDIO
    TITLE "LR_black_phrase_E_S06_062"
    INDEX 01 01:16:25
  TRACK 63 AUDIO
    TITLE "LR_black_phrase_E_S06_063"
    INDEX 01 01:17:40
  TRACK 64 AUDIO
    TITLE "LR_black_phrase_E_S06_064"
    INDEX 01 01:17:62
  TRACK 65 AUDIO
    TITLE "LR_black_phrase_E_S06_065"
    INDEX 01 01:20:31
  TRACK 66 AUDIO
    TITLE "LR_black_phrase_E_S06_066"
    INDEX 01 01:21:05
  TRACK 67 AUDIO
    TITLE "LR_black_phrase_E_S06_067"
    INDEX 01 01:23:49
  TRACK 68 AUDIO
    TITLE "LR_black_phrase_E_S06_068"
    INDEX 01 01:24:48
  TRACK 69 AUDIO
    TITLE "LR_black_phrase_E_S06_069"
    INDEX 01 01:25:58
  TRACK 70 AUDIO
    TITLE "LR_black_phrase_E_S06_070"
    INDEX 01 01:26:02
  TRACK 71 AUDIO
    TITLE "LR_black_phrase_E_S06_071"
    INDEX 01 01:28:38
  TRACK 72 AUDIO
    TITLE "LR_black_phrase_E_S06_072"
    INDEX 01 01:29:06
  TRACK 73 AUDIO
    TITLE "LR_black_phrase_E_S06_073"
    INDEX 01 01:31:44
  TRACK 74 AUDIO
    TITLE "LR_black_phrase_E_S06_074"
    INDEX 01 01:32:42
  TRACK 75 AUDIO
    TITLE "LR_black_phrase_E_S06_075"
    INDEX 01 01:33:69
  TRACK 76 AUDIO
    TITLE "LR_black_phrase_E_S06_076"
    INDEX 01 01:34:23
  TRACK 77 AUDIO
    TITLE "LR_black_phrase_E_S06_077"
    INDEX 01 01:36:46
  TRACK 78 AUDIO
    TITLE "LR_black_phrase_E_S06_078"
    INDEX 01 01:37:25
  TRACK 79 AUDIO
    TITLE "LR_black_phrase_E_S06_079"
    INDEX 01 01:39:48
  TRACK 80 AUDIO
    TITLE "LR_black_phrase_E_S06_080"
    INDEX 01 01:40:53
  TRACK 81 AUDIO
    TITLE "LR_black_phrase_E_S06_081"
    INDEX 01 01:41:60
  TRACK 82 AUDIO
    TITLE "LR_black_phrase_E_S06_082"
    INDEX 01 01:42:15
  TRACK 83 AUDIO
    TITLE "LR_black_phrase_E_S06_083"
    INDEX 01 01:44:18
  TRACK 84 AUDIO
    TITLE "LR_black_phrase_E_S06_084"
    INDEX 01 01:44:72
  TRACK 85 AUDIO
    TITLE "LR_black_phrase_E_S06_085"
    INDEX 01 01:47:00
  TRACK 86 AUDIO
    TITLE "LR_black_phrase_E_S06_086"
    INDEX 01 01:48:02
  TRACK 87 AUDIO
    TITLE "LR_black_phrase_E_S06_087"
    INDEX 01 01:49:25
  TRACK 88 AUDIO
    TITLE "LR_black_phrase_E_S06_088"
    INDEX 01 01:49:46
  TRACK 89 AUDIO
    TITLE "LR_black_phrase_E_S06_089"
    INDEX 01 01:51:67
  TRACK 90 AUDIO
    TITLE "LR_black_phrase_E_S06_090"
    INDEX 01 01:52:39
  TRACK 91 AUDIO
    TITLE "LR_black_phrase_E_S06_091"
    INDEX 01 01:54:59
  TRACK 92 AUDIO
    TITLE "LR_black_phrase_E_S06_092"
    INDEX 01 01:55:53
  TRACK 93 AUDIO
    TITLE "LR_black_phrase_E_S06_093"
    INDEX 01 01:57:03
  TRACK 94 AUDIO
    TITLE "LR_black_phrase_E_S06_094"
    INDEX 01 01:57:20
  TRACK 95 AUDIO
    TITLE "LR_black_phrase_E_S06_095"
    INDEX 01 01:59:37
  TRACK 96 AUDIO
    TITLE "LR_black_phrase_E_S06_096"
    INDEX 01 02:00:07
  TRACK 97 AUDIO
    TITLE "LR_black_phrase_E_S06_097"
    INDEX 01 02:02:25
  TRACK 98 AUDIO
    TITLE "LR_black_phrase_E_S06_098"
    INDEX 01 02:03:25
  TRACK 99 AUDIO
    TITLE "LR_black_phrase_E_S06_099"
    INDEX 01 02:04:42
  TRACK 100 AUDIO
    TITLE "LR_black_phrase_E_S06_100"
    INDEX 01 02:04:69
  TRACK 101 AUDIO
    TITLE "LR_black_phrase_E_S06_101"
    INDEX 01 02:07:25
  TRACK 102 AUDIO
    TITLE "LR_black_phrase_E_S06_102"
    INDEX 01 02:08:04
  TRACK 103 AUDIO
    TITLE "LR_black_phrase_E_S06_103"
    INDEX 01 02:10:35
  TRACK 104 AUDIO
    TITLE "LR_black_phrase_E_S06_104"
    INDEX 01 02:11:40
  TRACK 105 AUDIO
    TITLE "LR_black_phrase_E_S06_105"
    INDEX 01 02:12:71
  TRACK 106 AUDIO
    TITLE "LR_black_phrase_E_S06_106"
    INDEX 01 02:13:25
  TRACK 107 AUDIO
    TITLE "LR_black_phrase_E_S06_107"
    INDEX 01 02:16:02
  TRACK 108 AUDIO
    TITLE "LR_black_phrase_E_S06_108"
    INDEX 01 02:16:57
  TRACK 109 AUDIO
    TITLE "LR_black_phrase_E_S06_109"
    INDEX 01 02:19:34
  TRACK 110 AUDIO
    TITLE "LR_black_phrase_E_S06_110"
    INDEX 01 02:20:37
  TRACK 111 AUDIO
    TITLE "LR_black_phrase_E_S06_111"
    INDEX 01 02:21:60
  TRACK 112 AUDIO
    TITLE "LR_black_phrase_E_S06_112"
    INDEX 01 02:22:07
  TRACK 113 AUDIO
    TITLE "LR_black_phrase_E_S06_113"
    INDEX 01 02:24:45
  TRACK 114 AUDIO
    TITLE "LR_black_phrase_E_S06_114"
    INDEX 01 02:25:15
  TRACK 115 AUDIO
    TITLE "LR_black_phrase_E_S06_115"
    INDEX 01 02:27:53
  TRACK 116 AUDIO
    TITLE "LR_black_phrase_E_S06_116"
    INDEX 01 02:28:46
  TRACK 117 AUDIO
    TITLE "LR_black_phrase_E_S06_117"
    INDEX 01 02:29:73
  TRACK 118 AUDIO
    TITLE "LR_black_phrase_E_S06_118"
    INDEX 01 02:30:20
  TRACK 119 AUDIO
    TITLE "LR_black_phrase_E_S06_119"
    INDEX 01 02:32:58
  TRACK 120 AUDIO
    TITLE "LR_black_phrase_E_S06_120"
    INDEX 01 02:33:28
  TRACK 121 AUDIO
    TITLE "LR_black_phrase_E_S06_121"
    INDEX 01 02:35:64
